<svg xmlns="http://www.w3.org/2000/svg" width="200" height="200" viewBox="0 0 200 200" style="overflow:hidden">
  <g fill="none" stroke="#059669" stroke-width="1.5">
    <path stroke-opacity="0.09" d="M0,40 Q25,15 50,40 T100,40 T150,40 T200,40"/>
    <path stroke-opacity="0.07" d="M0,100 Q25,72 50,100 T100,100 T150,100 T200,100"/>
    <path stroke-opacity="0.05" d="M0,160 Q25,138 50,160 T100,160 T150,160 T200,160"/>
  </g>
  <g fill="none" stroke="#7c3aed" stroke-opacity="0.14" stroke-width="1.2">
    <path d="M50 62 L50 78 M42 70 L58 70 M44 64 L56 76 M56 64 L44 76"/>
    <path d="M150 122 L150 138 M142 130 L158 130 M144 124 L156 136 M156 124 L144 136"/>
  </g>
</svg>
